<?xml version="1.0" encoding="UTF-8"?> <svg xmlns="http://www.w3.org/2000/svg" width="101.459" height="109.542" viewBox="0 0 101.459 109.542"><path id="Path_5224" data-name="Path 5224" d="M37.458 108.908c.144.021.221.034.371.055a.381.381 0 0 1-.19.079c-.063 0-.116-.041-.181-.134Zm.563-.248c-.547-.06-1.1-.074-1.637-.184a4.324 4.324 0 0 1-2.07-.855 3.873 3.873 0 0 1-.443-.329 3.721 3.721 0 0 1-.852-1.7 10.4 10.4 0 0 1-.11-1.826c-.008-.752-.019-1.5.007-2.255a4.239 4.239 0 0 1 .379-1.663 2.93 2.93 0 0 1 1.532-1.539 11.239 11.239 0 0 1 1.123-.471 10.028 10.028 0 0 1 1.168-.187 6.428 6.428 0 0 1 .658-.119c1.171-.055 2.345-.118 3.518-.136.673-.011 1.346.058 2.023.084a10.566 10.566 0 0 0 1.157.011 5.053 5.053 0 0 1 1.076.1 6.652 6.652 0 0 1 1.286.326 2.733 2.733 0 0 1 1.634 1.376 4.347 4.347 0 0 1 .381 1.584c.022.168-.1.263-.326.268-.476.014-.95.026-1.427.023-.925 0-1.852-.023-2.778-.021a.365.365 0 0 1-.382-.229 1.517 1.517 0 0 0-1.438-.84c-.795-.066-1.6-.044-2.4-.04a1.831 1.831 0 0 0-.624.127c-.3.108-.647.013-.928.205a1.037 1.037 0 0 0-.585.831 1.6 1.6 0 0 1-.078.247 2.79 2.79 0 0 0-.1.545q-.016 1.141-.005 2.282a1.964 1.964 0 0 0 .51 1.294.837.837 0 0 0 .666.361.222.222 0 0 1 .107.021 1.037 1.037 0 0 0 .716.111 4.266 4.266 0 0 1 .815.042c.536.008 1.073.018 1.61-.008a3.469 3.469 0 0 0 1.015-.158 1.093 1.093 0 0 0 .643-.777c.036-.129.058-.263.095-.421a.664.664 0 0 0-.534-.152c-.726.005-1.45.008-2.176.008-.353 0-.384-.034-.39-.39-.005-.5-.008-1 0-1.5 0-.371.068-.418.447-.421.913-.005 1.826-.021 2.736-.026 1.09-.005 2.179 0 3.265 0 .387 0 .777-.023 1.161-.008a1.353 1.353 0 0 1 .392.126c0 .661.005 1.261 0 1.858-.005.25-.041.5-.066.748a3.783 3.783 0 0 0-.055.483 3.129 3.129 0 0 1-.658 1.853c-.116.168-.25.415-.527.442a.052.052 0 0 0-.032.018 4.085 4.085 0 0 1-1.363.658.489.489 0 0 1-.145.04c-.492.058-.984.115-1.479.171-.3.032-.594.074-.895.085-1.076.031-2.149.047-3.226.078h-.285a19.9 19.9 0 0 1-2.106-.15Zm-31.159.041c-.206 0-.411.006-.617.016s-.388.019-.582.018c-.986-.005-1.976-.026-2.963-.034-.486 0-.97.013-1.454.023a.225.225 0 0 1-.253-.174 1.432 1.432 0 0 1-.029-.334q0-4.487.011-8.972v-1.687a2.257 2.257 0 0 1 .4-.073c.373-.005.747.015 1.123.015.85 0 1.7-.015 2.552-.018.172 0 .345 0 .517.007.19.005.381.011.571.008 1.16-.008 2.324-.029 3.487-.037.1 0 .209.007.312.016a2.513 2.513 0 0 0 .435.011 10.5 10.5 0 0 1 2.387.166 4.365 4.365 0 0 1 1.541.433 2.242 2.242 0 0 1 1.283 1.989 7.48 7.48 0 0 1-.031 1.2 1.756 1.756 0 0 1-.6 1.084 10 10 0 0 1-.958.661c.174.071.363.137.542.226a4.072 4.072 0 0 1 .684.379 1.4 1.4 0 0 1 .321.437c.1.187.268.332.282.581a7.793 7.793 0 0 1-.048 1.892 3.04 3.04 0 0 1-.947 1.492.361.361 0 0 1-.158.1c-.458.139-.913.279-1.373.41a4.873 4.873 0 0 1-1.223.139c-.624.014-1.245.1-1.868.1-1.117-.013-2.231-.058-3.344-.073Zm-1.076-3.041c.01.342.026.368.36.373 1.076.013 2.152.023 3.226.021a8.37 8.37 0 0 0 .96-.089.994.994 0 0 0 .763-.848.848.848 0 0 0-.887-.855 34.37 34.37 0 0 0-1.871-.055 65.708 65.708 0 0 0-2.175 0c-.284.005-.345.081-.364.365-.013.2 0 .4 0 .6h-.01c-.001.162-.004.325-.001.489Zm1.614-3.766a14.5 14.5 0 0 0 2.338-.085.133.133 0 0 1 .074.005c.19.129.305 0 .479-.071a.786.786 0 0 0 .526-.834.727.727 0 0 0-.584-.643 2.41 2.41 0 0 0-.6-.045h-.207q-1.52-.016-3.037-.019c-.194 0-.39.024-.6.04v1.581c.268.024.5.061.736.061h.118c.257.001.507.001.757.01Zm77.04 6.756c-.146-.007-.292 0-.437 0-.166 0-.331.006-.494 0a5.9 5.9 0 0 1-1.144-.139 3.738 3.738 0 0 1-2.239-1.409 2.421 2.421 0 0 1-.453-1.305 3.655 3.655 0 0 0-.085-.479c-.052-.313.074-.484.387-.489 1.027-.016 2.052-.024 3.079-.034a2.7 2.7 0 0 0 .3-.011c.721-.085.977.126.913.779a1.841 1.841 0 0 0 .987.461 1.545 1.545 0 0 0 .221.037c.687.015 1.371.049 2.057.037.472-.014.94-.095 1.408-.145a.636.636 0 0 1 .185 0 .238.238 0 0 0 .3-.166.716.716 0 0 1 .107-.2c.3-.3.137-.606 0-.9a.507.507 0 0 0-.479-.248c-1.037-.037-2.073-.053-3.109-.116a6.381 6.381 0 0 1-1.561-.137 1.007 1.007 0 0 0-.339-.027 1.752 1.752 0 0 1-.218 0c-.558-.052-1.119-.094-1.674-.182a2.989 2.989 0 0 1-.77-.263 3.238 3.238 0 0 1-1.09-.7 2.307 2.307 0 0 1-.6-1.29 9.486 9.486 0 0 1 .013-1.795 1.689 1.689 0 0 1 .355-.923 3.231 3.231 0 0 1 1.713-1.205c.4-.111.795-.208 1.194-.311a.465.465 0 0 1 .185-.029 3.662 3.662 0 0 0 1.121-.048 4.724 4.724 0 0 1 .85-.073c.739.021 1.476 0 2.212-.005.427 0 .852-.013 1.276 0 .324.008.647.04.971.071.3.026.594.071.892.1a6.23 6.23 0 0 1 2.444.724 1.794 1.794 0 0 1 .7.715 2.206 2.206 0 0 1 .374 1.481 2.626 2.626 0 0 0-.008.413c-.005.265-.037.3-.3.3l-3.678.034c-.113 0-.226.027-.337.019a.288.288 0 0 1-.305-.266c-.071-.579-.3-.813-.868-.829-.974-.026-1.95-.047-2.921-.026a2.925 2.925 0 0 0-.924.25c-.231.086-.294.85-.094.992a.883.883 0 0 0 .337.156c.529.086 1.06.181 1.595.22.294.021.59.019.887.017.267 0 .534 0 .8.012.55.03 1.094.108 1.642.156.2.018.4 0 .6 0 .013 0 .026-.008.037-.005a7.987 7.987 0 0 1 1.52.271 1.473 1.473 0 0 0 .25.06c.116.029.231.066.347.089s.237.034.284.043l.665.383a1.619 1.619 0 0 1 .789 1.034 6.49 6.49 0 0 1 .139 1.849c0 .15-.015.3-.013.45a2 2 0 0 1-.458 1.176 2.285 2.285 0 0 1-.84.644 4.585 4.585 0 0 1-1.473.466c-.205.034-.4.108-.61.142-.171.029-.347.029-.521.041a2.082 2.082 0 0 0-.257.027 7.141 7.141 0 0 1-.842.147c-.647.032-1.3.016-1.947.05-.213.011-.427.016-.639.016-.81-.004-1.606-.072-2.407-.107Zm-54.261.072a14.342 14.342 0 0 0-1.56-.051h-.721c-.559-.012-1.119 0-1.679.006-.4.006-.809.013-1.213.012-1.139 0-2.276-.026-3.416-.029-1 0-2 .008-3 .015a.712.712 0 0 0-.15.016c-.337.068-.41.014-.41-.345 0-.726.013-1.45.011-2.176 0-1.9-.011-3.8-.014-5.707v-2.741a1.22 1.22 0 0 1 .04-.234h1.184c.877-.005 1.753-.015 2.626-.011 1.778.005 3.555.024 5.331.034h2.289c.261 0 .521-.024.781-.03s.332.053.332.324c0 .55-.014 1.1-.011 1.647a4.945 4.945 0 0 0 .059.553.673.673 0 0 1-.595.2c-.9-.045-1.8-.015-2.7-.013q-1.389.007-2.776.021c-.513.005-1.026.021-1.539.026-.153 0-.239.06-.245.216-.011.363-.021.726-.026 1.089a.264.264 0 0 0 .266.3c.184.014.371.034.558.034q2.423.008 4.844.011h1.6a1.213 1.213 0 0 1 .087.284c0 .347-.011.695-.014 1.045 0 .2.011.4.008.6 0 .239-.048.284-.279.308a2.088 2.088 0 0 1-.226.008c-1.513 0-3.029-.008-4.544 0-.65 0-1.3.029-1.949.058-.3.014-.324.05-.335.329a32 32 0 0 0-.026.974c0 .442.122.563.553.563l5.9.018c.447 0 .9-.008 1.345 0 .253 0 .261.033.25.281-.019.373-.019.748-.021 1.121-.005.347 0 .7-.014 1.044a.241.241 0 0 1-.153.171 1.374 1.374 0 0 1-.342.047.953.953 0 0 1-.104-.018Zm34.755-.042c-.3-.005-.369-.066-.419-.363a1.247 1.247 0 0 1-.011-.224c.022-1.939.055-3.878.06-5.817 0-1.376-.031-2.752-.052-4.128a2.075 2.075 0 0 0-.012-.224c-.041-.368.011-.447.387-.455.47-.006.941-.005 1.413-.005h1.063c1.112-.005 2.226-.024 3.339-.024.689 0 1.376.037 2.065.034.524 0 1.05-.058 1.574-.066.563-.01 1.123.005 1.687.011.281 0 .56.011.839.008a.314.314 0 0 1 .334.353c.008.49.005.976.005 1.465 0 .186 0 .376-.007.563a.337.337 0 0 1-.377.319c-.671-.021-1.344-.041-2.015-.049-.9-.011-1.8-.013-2.7-.013-.75 0-1.5.011-2.253.016a2.186 2.186 0 0 0-.223.023.242.242 0 0 0-.242.274c0 .374-.014.75-.005 1.126 0 .293.06.35.355.353.9.011 1.8.011 2.7.013l3.455.016c.123 0 .249.008.374 0 .36-.032.5.092.494.453q-.012.5-.021 1.01c0 .113.008.224.011.338a.378.378 0 0 1-.366.423c-.121.01-.243.008-.365.006h-.2q-2.948.012-5.9.029a1.437 1.437 0 0 0-.186.011c-.266.032-.332.082-.339.35-.011.461 0 .921 0 1.426.21.022.384.05.554.05 1.966 0 3.931-.008 5.894-.011.376 0 .752 0 1.126.016.35.018.392.086.39.447v1.876c0 .111-.016.219-.026.371h-.956l-6.383.008c-1.226 0-2.452.005-3.678.008-.457-.012-.917-.012-1.381-.017Zm-13.754-.009c-.224 0-.271-.058-.271-.339-.005-1.076-.005-2.155-.005-3.231v-7.579a5.162 5.162 0 0 1 .613-.079c.51 0 1.021.045 1.531.04.55 0 1.1-.048 1.647-.058.174-.005.345.047.518.049a1.134 1.134 0 0 0 .3-.071c.086.076.171.148.249.216a6.981 6.981 0 0 0-.081 1.76c0 1.952.01 3.9.023 5.854a1.64 1.64 0 0 0 .079.558c.031.082.2.15.308.158.311.023.626.018.937.018l5.18-.005a1.915 1.915 0 0 0 .3-.021c.276-.045.4.034.408.316.019.539.022 1.076.027 1.616 0 .16-.005.323-.011.484-.005.239-.089.32-.313.318-1.336-.007-2.673-.026-4.009-.021-2.026 0-4.052.021-6.078.031h-.146c-.403 0-.802-.01-1.203-.014ZM18.011 96.285c.026-.547.021-.673.721-.642.427.016.854.012 1.282.006h4.126c1.249 0 2.5-.005 3.754 0 .54 0 1.076.013 1.615.015.234 0 .469-.007.7-.023a.215.215 0 0 1 .249.221c.005.331-.021.663-.034 1.034-.4.011-.76.029-1.118.029-1.866 0-3.73-.005-5.594-.005-1.7 0-3.4-.005-5.108.016h-.014c-.471-.001-.602-.21-.579-.651ZM4.946 94.656c-1.326-.005-2.652-.029-3.978-.047-.282-.005-.324-.06-.324-.329q.012-1.629.013-3.265c0-1.123.013-2.249 0-3.375-.021-1.576-.062-3.155-.087-4.729-.013-.813 0-1.625-.01-2.439-.013-1.2-.034-2.4-.053-3.6 0-.25.013-.5-.005-.75a.461.461 0 0 1 .29-.476 7.262 7.262 0 0 1 1.094-.54c.208-.066.419-.242.673-.152a.207.207 0 0 0 .179-.023 1.387 1.387 0 0 1 .994-.25 9.93 9.93 0 0 1 3.168.131 13.046 13.046 0 0 1 1.453.464c.539.211 1.057.473 1.586.707.074.032.179 0 .245.04.05.029.059.126.1.213a.489.489 0 0 1 .553.081 2.817 2.817 0 0 0 1.062.337 4.868 4.868 0 0 0 .848.127 4.038 4.038 0 0 0 .707-.005 64.02 64.02 0 0 0 2.231-.268 5.881 5.881 0 0 0 .806-.221c.416-.123.834-.249 1.25-.382.118-.037.226-.1.342-.141a9.369 9.369 0 0 0 1.349-.614c.276-.149.572-.284.845-.447.105-.063.2-.142.3-.205a2.343 2.343 0 0 1 .247-.111 1.844 1.844 0 0 1-.168 1.219c-.045.111-.067.231-.1.347-.044.15-.092.3-.137.453-.205.689-.413 1.379-.613 2.071-.068.239-.1.486-.171.723a4.661 4.661 0 0 0-.2.666 6.008 6.008 0 0 1-.237.892c-.085.279-.184.55-.271.829a2.5 2.5 0 0 0-.171.629 5.75 5.75 0 0 1-.321 1.057c-.049.216-.121.424-.179.636-.166.611-.318 1.224-.491 1.832-.129.458-.324.9-.413 1.363a7.3 7.3 0 0 0-.319 1.125c0 .311-.216.509-.221.8a3.288 3.288 0 0 1-.244.779 1.6 1.6 0 0 0-.024.257c-.007.071 0 .179-.041.208-.156.111-.087.271-.132.4a6.647 6.647 0 0 0-.208.692 1.1 1.1 0 0 1-.108.35c-.275.476-.16 1.068-.483 1.542a1.479 1.479 0 0 0-.135.669.694.694 0 0 1-.731.71c-1.413.008-2.829.008-4.242.011-1.663 0-3.325.013-4.988.013Zm39.591-.32c.034-.048.052-.095.076-.1.342-.052.684-.1 1.026-.148a2.257 2.257 0 0 0 .334-.037 5.179 5.179 0 0 1 1.613-.276.32.32 0 0 0 .211-.06.748.748 0 0 1 .529-.137 1.059 1.059 0 0 0 .281-.06c.048-.014.09-.056.137-.06.353-.056.708-.1 1.058-.161a5.932 5.932 0 0 0 .87-.2 12.616 12.616 0 0 1 1.418-.311c.5-.105.994-.286 1.494-.426.13-.034.3.013.4-.053.292-.184.642-.058.947-.247a2.411 2.411 0 0 1 .823-.163.3.3 0 0 1 .058 0 .206.206 0 0 0 .09-.013 11.279 11.279 0 0 1 1.752-.568c.371-.148.781-.2 1.147-.389.807-.016 1.479-.543 2.267-.621.219-.234.545-.19.811-.306.416-.181.866-.286 1.292-.442a11.782 11.782 0 0 0 1.621-.626.376.376 0 0 0 .328-.093.43.43 0 0 1 .328-.1c.156.026.339-.2.521-.226.29-.045.516-.235.8-.292a4.216 4.216 0 0 0 .77-.345c.324-.134.658-.242.974-.386a7.022 7.022 0 0 1 1.5-.606c.245-.3.7-.211.942-.518a.172.172 0 0 1 .1-.037 5.518 5.518 0 0 0 1.023-.419c.361-.139.692-.349 1.05-.486.449-.174.833-.477 1.276-.648s.852-.457 1.286-.66a11.152 11.152 0 0 0 1.026-.516c.384-.229.784-.427 1.171-.647.45-.258.9-.519 1.336-.793.684-.426 1.368-.852 2.034-1.3.852-.58 1.7-1.164 2.524-1.789.684-.518 1.32-1.1 1.981-1.647.171-.142.373-.25.539-.4.41-.379.815-.765 1.208-1.165.587-.6 1.182-1.189 1.734-1.815.5-.568.96-1.171 1.415-1.773.421-.555.834-1.121 1.211-1.707.347-.543.642-1.119.966-1.677a.7.7 0 0 1 .174-.152c.048.065.131.126.137.2.023.36.034.721.04 1.081.005.2-.016.4-.016.6 0 1.163-.018 2.328 0 3.491.008.611.074 1.221.105 1.834.024.46.06.923.048 1.386-.029.979.076 1.948.137 2.921.026.4.011.8.032 1.2.018.36.06.721.092 1.081.024.3.04.6.066.895.04.424.1.841.13 1.265.029.387.039.774.039 1.164a5.835 5.835 0 0 0 .1 1.189A7.814 7.814 0 0 1 94 88.313a8 8 0 0 0 .09 1.455 5.12 5.12 0 0 1 .033 1.047c.008.526 0 1.052.022 1.576.008.237.068.468.084.706.027.36.05.723.048 1.084 0 .229-.108.3-.337.3l-7.47-.039q-3.528-.012-7.059-.013c-1.7 0-3.4.023-5.107.023q-4.676.008-9.35 0l-11.64-.018c-2.176 0-4.355-.013-6.533-.008-.51 0-1.023.048-1.535.066-.093 0-.188.015-.282.015a.55.55 0 0 1-.427-.172Zm-18.145-5.784c.005-.037 0-.066.011-.084a11.779 11.779 0 0 0 1.007-2.313.347.347 0 0 1 .061-.131 4.593 4.593 0 0 0 .434-.923c.268-.524.46-1.076.718-1.6a10.846 10.846 0 0 0 .629-1.384c.215-.674.576-1.284.813-1.945.082-.229.148-.465.25-.684.294-.634.59-1.271.836-1.926.093-.242.256-.458.329-.7.129-.435.36-.821.521-1.242s.376-.807.563-1.216a5.937 5.937 0 0 0 .45-1.041 20.829 20.829 0 0 1 .811-1.945c.113-.313.257-.616.389-.921.19-.442.382-.881.571-1.323.169-.4.369-.785.5-1.193.16-.5.437-.941.626-1.426s.4-.989.613-1.479c.29-.669.6-1.327.884-1.994.239-.553.45-1.119.687-1.674.216-.5.479-.986.669-1.5.171-.46.4-.895.568-1.354.056-.15.139-.287.216-.445.658-.071 1.316-.116 1.966-.216a10.21 10.21 0 0 1 1.752-.145.291.291 0 0 0 .147-.014 3.791 3.791 0 0 1 1.358-.194c.111-.015.22-.037.331-.052a2.195 2.195 0 0 1 .926-.076.309.309 0 0 0 .111-.005c.589-.082 1.176-.166 1.766-.237.334-.042.676-.031 1-.09a20.47 20.47 0 0 1 2.376-.241c.461-.029.914-.142 1.373-.19.684-.068 1.369-.1 2.053-.168.3-.031.586-.126.884-.156.563-.052 1.142-.029 1.7-.131.618-.113 1.237-.149 1.855-.223.256-.031.511-.076.771-.09.324-.013.639-.092.963-.126q.556-.055 1.12-.079c.7-.023 1.4-.055 2.1-.052.65 0 1.3.06 1.948.06a17.215 17.215 0 0 1 2.825.324c.661.113 1.3.313 1.952.453.464.1.887.294 1.34.408a7.553 7.553 0 0 1 1.183.536 8.464 8.464 0 0 1 2.047 1.3 7.689 7.689 0 0 1 2.227 3.057 3.771 3.771 0 0 1 .255.848c.034.229.121.468.168.71a12.221 12.221 0 0 1 .068 3.175 3.14 3.14 0 0 1-.245 1.274 3.729 3.729 0 0 0-.155.823 3.57 3.57 0 0 1-.208.621c-.205.468-.421.929-.637 1.39-.1.223-.221.442-.331.662a9.708 9.708 0 0 1-1.037 1.464c-.339.447-.724.85-1.089 1.273a10.184 10.184 0 0 1-1.239 1.189c-.508.416-1.013.837-1.539 1.229-.327.245-.708.419-1.034.663-.476.35-1.023.571-1.513.9a5.283 5.283 0 0 1-.663.347c-.547.265-1.094.529-1.647.784a9.5 9.5 0 0 1-1.471.571 4.105 4.105 0 0 0-.626.276.522.522 0 0 1-.1.045 8.18 8.18 0 0 0-1.313.431 7.625 7.625 0 0 1-.687.182c-.568.124-1.139.234-1.707.361-.292.066-.576.158-.866.229a1.135 1.135 0 0 1-.331.045.583.583 0 0 0-.453.129.364.364 0 0 1-.208.076 10.147 10.147 0 0 0-1.792.36c-.408.1-.826.156-1.237.242-.231.048-.455.126-.684.176-.447.1-.9.184-1.345.284-.242.055-.476.145-.718.194-.279.059-.565.09-.847.139a1.769 1.769 0 0 0-.234.095c-.079.026-.158.053-.239.074-.142.032-.284.055-.427.085-.074.016-.145.034-.219.045a.428.428 0 0 1-.076 0 .159.159 0 0 0-.108.013 1.356 1.356 0 0 1-.8.185c-.219.018-.436.063-.653.1a.776.776 0 0 0-.168.058c-.021.011-.029.05-.05.052a38.34 38.34 0 0 1-.96.232.216.216 0 0 1-.085-.01.138.138 0 0 0-.1 0 9.841 9.841 0 0 1-1.75.458 11.181 11.181 0 0 1-1.749.416c-.521.084-1.022.216-1.532.339a2.2 2.2 0 0 0-.741.189.14.14 0 0 1-.105.023.941.941 0 0 0-.527.066 1.169 1.169 0 0 1-.418.082c-.078-.005-.16.061-.239.1a.487.487 0 0 1-.168.076c-.56.022-1.086.227-1.636.3-.342.048-.673.168-1.011.25a9.38 9.38 0 0 1-.621.131 16.212 16.212 0 0 1-1.775.372 3.363 3.363 0 0 0-.653.158c-.389.105-.776.226-1.168.319-.255.06-.521.076-.776.126-.145.029-.279.092-.421.134-.092.026-.19.045-.287.066-.17.037-.342.071-.51.111-.047.013-.094.066-.137.058-.61-.108-1.131.292-1.731.3a4.852 4.852 0 0 0-.956.268c-.334.084-.679.131-1.012.208s-.666.171-1 .249c-.253.058-.508.1-.792.158-.044-.048-.107-.122-.165-.188ZM15.834 69.911a9.706 9.706 0 0 0-.951-.028h-.422a.413.413 0 0 1-.184-.016c-.554-.292-1.2-.279-1.757-.579s-1.156-.5-1.732-.755a6.531 6.531 0 0 0-1.488-.408c-.094-.019-.184-.066-.279-.093a2.224 2.224 0 0 0-.323-.058h-.2a1.287 1.287 0 0 1-.355-.026 8.2 8.2 0 0 0-2.35-.113 8.135 8.135 0 0 0-.962.134.469.469 0 0 1-.148.022 3.9 3.9 0 0 0-1.461.266c-.252.055-.5.137-.755.176a4.717 4.717 0 0 0-1.386.521c-.113.055-.221.176-.338.076a.5.5 0 0 1-.205-.416c.037-.561.068-1.121.068-1.684 0-1.536-.018-3.076-.023-4.615 0-.274.029-.547.037-.824a.682.682 0 0 1 .4-.59c.516-.284 1.024-.584 1.558-.823.576-.258 1.182-.455 1.776-.679a1.036 1.036 0 0 1 .684-.085.279.279 0 0 0 .216-.031 1.17 1.17 0 0 1 .711-.148h.123c.29 0 .579-.016.866 0s.589.085.884.131a1.6 1.6 0 0 0 .328.058 2.64 2.64 0 0 1 1.156.248 8.433 8.433 0 0 1 1.037.363c.431.253.958.263 1.357.595.129.108.355.094.526.166.431.184.852.4 1.289.576.366.15.744.263 1.121.39.212.068.426.145.644.194a4.717 4.717 0 0 0 .516.063 1.159 1.159 0 0 1 .257.032 4.458 4.458 0 0 0 2.5.033 2.179 2.179 0 0 1 .256-.031c.245-.037.49-.076.734-.115.037-.008.07-.037.1-.034a6.1 6.1 0 0 0 2.139-.555 10.644 10.644 0 0 0 1.113-.376c.471-.208.918-.466 1.371-.71.184-.1.353-.229.528-.34.14-.089.261-.034.409.079-.1.279-.284.539-.258.779.034.312-.221.531-.163.841.029.155-.129.339-.182.516-.194.663-.334 1.339-.573 1.992a9.439 9.439 0 0 0-.279 1.194 2.589 2.589 0 0 1-.1.358 10.44 10.44 0 0 0-.461 1.557.873.873 0 0 1-.382.621 2.382 2.382 0 0 1-.7.41c-.139.03-.253.161-.39.219-.547.223-1.1.437-1.65.655-.081.034-.152.079-.229.121a.534.534 0 0 1-.163.085c-.566.068-1.087.308-1.64.41a10.147 10.147 0 0 1-1.863.265 2.675 2.675 0 0 1-.352-.014Zm1.487-12.9a1.409 1.409 0 0 0-.68-.182 3.664 3.664 0 0 1-.578-.144c-.4-.121-.8-.244-1.2-.379a18.346 18.346 0 0 1-1.112-.394c-.264-.108-.509-.26-.769-.376a3.833 3.833 0 0 0-1.087-.447 2.47 2.47 0 0 1-.479-.2c-.489-.179-.973-.382-1.473-.521-.405-.113-.839-.111-1.245-.219a3.467 3.467 0 0 0-1.228-.092 13.267 13.267 0 0 0-1.51.248 10.978 10.978 0 0 0-1.4.374 4.953 4.953 0 0 0-1 .423c-.558.343-1.179.574-1.718.958-.342.244-.7.46-1.092.715a.306.306 0 0 1-.192-.311c.013-1.05.01-2.1.013-3.152.005-1.124.013-2.25.013-3.376a.382.382 0 0 1 .176-.35 12.213 12.213 0 0 1 2.06-1.21c.36-.152.7-.347 1.07-.479a9.587 9.587 0 0 1 1.104-.312c.316-.071.64-.1.956-.163a6.4 6.4 0 0 1 .647-.15c.5-.037 1-.06 1.494-.06a10.621 10.621 0 0 1 1.418.066c.616.085 1.226.219 1.833.353a15.39 15.39 0 0 1 1.695.5 6.862 6.862 0 0 1 1.165.511l.031.018c.427-.116.677.253 1.013.379.844.316 1.684.65 2.5 1.034a8.681 8.681 0 0 0 1.428.426 3.2 3.2 0 0 0 .877.074 5.309 5.309 0 0 1 .536.014 6.022 6.022 0 0 0 1.618-.234 12.975 12.975 0 0 0 1.282-.358 11.5 11.5 0 0 0 2.034-.768c.142-.071.316-.074.46-.142.666-.31 1.329-.632 1.989-.953.221-.1.44-.218.661-.323.116-.058.234-.105.361.04-.179.523-.365 1.057-.547 1.594-.127.376-.248.752-.374 1.129a11.936 11.936 0 0 1-.587 1.777 4.189 4.189 0 0 0-.179.671c-.139.437-.3.868-.437 1.305a.721.721 0 0 1-.5.469 4.25 4.25 0 0 0-.427.186c-.3.148-.587.313-.892.45-.368.166-.752.3-1.126.461a10.618 10.618 0 0 1-1.7.563 8.883 8.883 0 0 1-2.079.445c-.323 0-.642.082-.966.1-.536.031-1.073.044-1.61.06h-.059a.336.336 0 0 1-.188-.043Zm75.571-2.247c-.384-.382-.763-.771-1.166-1.137a9.707 9.707 0 0 0-.774-.587c-.129-.1-.268-.185-.392-.287a12.53 12.53 0 0 0-2.021-1.252 10.725 10.725 0 0 0-1.182-.558c-.492-.192-1.012-.316-1.5-.521a8.9 8.9 0 0 0-1.139-.334c-.227-.058-.461-.094-.689-.15-.256-.06-.51-.129-.763-.2a2.183 2.183 0 0 0-.321-.1c-.62-.06-1.244-.113-1.865-.166-.51-.042-1.022-.108-1.532-.119-1.126-.023-2.252-.015-3.378-.026-.563 0-1.127-.014-1.687-.022a10.691 10.691 0 0 0-1.526.108 7.711 7.711 0 0 1-1.061.04h-.4c-.05 0-.1-.037-.235-.089.142-.034.2-.053.253-.061.258-.044.516-.084.773-.123a1.444 1.444 0 0 1 .258-.042.938.938 0 0 0 .613-.112.1.1 0 0 1 .074-.019 4.653 4.653 0 0 0 1.355-.2c.389-.048.77-.174 1.16-.25s.778-.131 1.171-.2a.311.311 0 0 1 .059 0 .171.171 0 0 0 .089-.013 2.626 2.626 0 0 1 1.173-.292 3.727 3.727 0 0 0 .6-.176c.473-.134.947-.268 1.423-.394.287-.079.59-.113.866-.219a3.19 3.19 0 0 0 .819-.274 1.164 1.164 0 0 1 .454-.15 6.648 6.648 0 0 0 1.4-.481c.4-.155.819-.263 1.221-.412.5-.19.994-.4 1.487-.606a27.79 27.79 0 0 0 1.313-.584c.536-.26 1.065-.539 1.591-.818q.765-.41 1.518-.84c.237-.137.465-.292.689-.447.461-.32.923-.639 1.371-.978a16.86 16.86 0 0 0 1.26-1.048c.432-.408.821-.86 1.231-1.292a2.172 2.172 0 0 1 .176-.145 2.7 2.7 0 0 1 0 .371 8.767 8.767 0 0 1-.147.721c-.111.447-.242.887-.35 1.334a6.624 6.624 0 0 1-.276 1.184 9.368 9.368 0 0 0-.237.966 9.536 9.536 0 0 0-.237 1.081c-.079.361-.171.722-.242 1.085s-.122.736-.19 1.1c-.089.465-.126.939-.212 1.4a8.533 8.533 0 0 0-.113 1.4c-.011.269-.121.535-.137.806-.034.687-.037 1.373-.056 2.063a5.22 5.22 0 0 1-.055.744 2.277 2.277 0 0 0-.016.887 3.188 3.188 0 0 1-.086.882c-.18-.197-.291-.327-.412-.443ZM42.8 51.31a.257.257 0 0 1-.04-.2 7.205 7.205 0 0 1 .271-.689c.313-.688.643-1.373.95-2.068.245-.552.463-1.121.7-1.676.313-.715.642-1.426.955-2.138.245-.563.474-1.134.718-1.695.174-.4.374-.787.543-1.189a15.909 15.909 0 0 1 .826-1.816 7.213 7.213 0 0 0 .289-.724c.319-.739.65-1.473.971-2.209q.868-1.986 1.731-3.971c.108-.247.213-.5.324-.744l1.2-2.7c.4-.9.774-1.786 1.16-2.678.034-.079.108-.148.124-.229.095-.463.41-.55.829-.581.847-.06 1.691-.168 2.536-.26.747-.082 1.495-.15 2.236-.256.941-.131 1.886-.211 2.828-.318.842-.1 1.681-.224 2.526-.3.971-.086 1.937-.223 2.9-.342 1.019-.123 2.034-.257 3.053-.376.647-.074 1.3-.082 1.939-.2a17.831 17.831 0 0 1 2.313-.2c.423-.022.85 0 1.273 0 .06 0 .123.01.186.015.671.066 1.35.085 2.008.208a10.417 10.417 0 0 1 2.752.815 8.483 8.483 0 0 1 .989.511 8.626 8.626 0 0 1 1.2.95 5.625 5.625 0 0 1 1.313 1.813c.123.3.211.61.308.918a9.8 9.8 0 0 1 .274.963 6.953 6.953 0 0 1 .1.966c.016.276 0 .55 0 .826a15.88 15.88 0 0 1-.182 2.426 10.5 10.5 0 0 1-1.466 3.523 11.828 11.828 0 0 1-1.137 1.291c-.229.248-.468.487-.713.716a8.953 8.953 0 0 1-2.111 1.476c-.579.289-1.157.583-1.75.847a6.293 6.293 0 0 1-.913.289 95.66 95.66 0 0 1-1.568.429c-.658.174-1.324.331-1.982.508-.5.134-.989.3-1.491.429-.479.126-.968.221-1.45.337a1.806 1.806 0 0 0-.276.111.877.877 0 0 1-.242.089 8.058 8.058 0 0 0-1.434.353c-.3.074-.595.16-.889.242-.346.095-.687.192-1.031.287-.169.044-.34.078-.508.123l-2.265.6c-.428.119-.852.261-1.283.372-.5.126-1.013.218-1.516.346-.274.068-.535.187-.808.272a2.768 2.768 0 0 1-.71.171c-.316.007-.573.2-.9.192a3.2 3.2 0 0 0-.8.253c-.487.131-.982.237-1.469.368-.239.063-.465.171-.7.231-.751.193-1.5.364-2.253.553-.431.111-.86.239-1.289.355-.131.034-.263.06-.4.089-.049.011-.105 0-.147.019a13.8 13.8 0 0 1-1.848.536 1.885 1.885 0 0 0-.794.25c-.124.1-.35.081-.532.111-.5.081-.958.331-1.476.365a4.211 4.211 0 0 0-.778.237 12.333 12.333 0 0 0-1.473.371c-.5.2-1.045.211-1.535.421a.224.224 0 0 1-.081.014.12.12 0 0 1-.085-.028Zm-22.451-4.163a2.463 2.463 0 0 1-.427-.1.813.813 0 0 0-.25-.066 2.74 2.74 0 0 1-1.129-.219 18.449 18.449 0 0 1-2.578-1.149 14.851 14.851 0 0 0-2.858-1.2 8.381 8.381 0 0 0-1.77-.431c-.542-.026-1.076-.2-1.618-.239-.644-.05-1.3-.037-1.944-.037h-.238a2.936 2.936 0 0 0-1.241.167.24.24 0 0 1-.111.019 3.53 3.53 0 0 0-.958.095 12.166 12.166 0 0 0-1.736.428 6.874 6.874 0 0 0-1.235.535c-.5.245-.995.51-1.568.807a2.439 2.439 0 0 1-.062-.372c-.005-1.59-.005-3.179-.008-4.769 0-1.926-.011-3.855-.011-5.783q0-5.292.013-10.589c.005-1.463.021-2.926.026-4.389q.008-2.943.013-5.893v-1.126c0-.335.041-.392.363-.337a11.822 11.822 0 0 1 1.205.271c.626.168 1.247.363 1.874.531.579.156 1.163.287 1.742.434.773.2 1.547.392 2.318.6 1.3.358 2.595.732 3.9 1.084.6.164 1.216.282 1.818.443.639.168 1.271.368 1.907.545.335.092.677.16 1.011.249.918.245 1.831.5 2.75.74.6.16 1.213.294 1.818.45 1.184.305 2.371.608 3.552.926.881.237 1.755.508 2.636.739 1.462.382 2.934.74 4.4 1.119.606.157 1.2.352 1.8.521.636.178 1.274.342 1.913.513.048.013.1.015.148.029.553.147.587.2.431.742-.16.574-.334 1.145-.5 1.718-.2.661-.382 1.321-.579 1.979-.208.7-.427 1.4-.632 2.107-.171.6-.329 1.2-.5 1.8-.212.763-.423 1.526-.65 2.286-.286.966-.59 1.929-.878 2.894-.082.274-.129.558-.211.832-.174.579-.363 1.152-.542 1.729-.076.237-.145.476-.208.715-.124.455-.234.913-.365 1.363-.182.621-.39 1.237-.566 1.86-.129.45-.211.915-.342 1.368a7.394 7.394 0 0 1-.364.963.562.562 0 0 1-.249.216c-.608.342-1.234.655-1.832 1.018-.508.313-1.084.464-1.6.752a5.19 5.19 0 0 1-1.039.409c-.518.158-1.048.286-1.571.418-.279.068-.569.095-.84.179a5.673 5.673 0 0 1-1.6.137h-.164a8.09 8.09 0 0 1-.664-.031Zm77.063-19a12.441 12.441 0 0 0-1.321-3.038 15.6 15.6 0 0 0-.855-1.363 15.032 15.032 0 0 0-1.055-1.266c-.384-.426-.773-.85-1.194-1.237a12.635 12.635 0 0 0-1.314-1.058c-.752-.527-1.529-1.021-2.3-1.524-.124-.081-.265-.134-.4-.208s-.239-.149-.36-.223l.026-.092a3.8 3.8 0 0 1 .463-.014c1.769.142 3.54.294 5.307.434 1.06.085 2.12.15 3.182.231 1.033.079 2.067.167 3.1.253a2.345 2.345 0 0 1 .261.055 1.466 1.466 0 0 1-.116.695c-.274.611-.508 1.239-.755 1.863-.3.766-.6 1.529-.9 2.3-.076.2-.129.4-.189.6-.387 1.305-.771 2.607-1.164 3.91a2.269 2.269 0 0 1-.22.392c-.076-.293-.142-.501-.197-.711ZM44.248 16.774c-.968-.7-1.96-1.382-2.937-2.074-.671-.473-1.328-.962-2-1.434-.784-.55-1.576-1.086-2.365-1.629a7.9 7.9 0 0 1-.915-.642c-.616-.565-1.365-.939-2.008-1.465-.536-.439-1.12-.823-1.691-1.224-.384-.271-.787-.516-1.174-.787-.681-.479-1.355-.968-2.037-1.447-.5-.357-1.026-.7-1.534-1.052-.682-.476-1.355-.96-2.034-1.445-.261-.186-.516-.387-.776-.573a1.237 1.237 0 0 0-.232-.108.582.582 0 0 1-.2-.1 6.238 6.238 0 0 0-1.2-.876c-.437-.325-.888-.633-1.329-.954a.579.579 0 0 1-.206-.279 1.12 1.12 0 0 1 .41.105c.315.239.692.174 1.04.253.058.014.136-.005.178.026a3.241 3.241 0 0 0 1.142.424 3.977 3.977 0 0 1 1.037.319 2.262 2.262 0 0 0 .545.11c.408.116.808.256 1.216.374.733.207 1.468.4 2.2.612.315.087.625.172.929.279.342.124.715.166 1.036.3.661.268 1.358.4 2.029.618.806.266 1.634.465 2.45.7.371.109.739.23 1.111.338 1.018.3 2.038.595 3.06.886.679.194 1.371.374 2.049.571.371.108.732.247 1.1.364s.744.213 1.115.32c.45.131.9.272 1.353.4a3.445 3.445 0 0 1 .584.123c.434.213.915.239 1.353.406.836.312 1.707.481 2.549.742.942.292 1.905.524 2.852.792.335.095.655.231.993.329.762.224 1.536.429 2.3.652.5.145 1 .316 1.5.464s1.01.268 1.516.408c.248.071.49.163.739.234.555.156 1.113.3 1.666.453.571.166 1.137.353 1.713.518.5.145 1.008.268 1.507.41.455.129.908.268 1.363.4.611.179 1.221.35 1.831.529.465.137.929.282 1.4.418a4.25 4.25 0 0 0 .434.11 1.748 1.748 0 0 1 .85.269.215.215 0 0 0 .1.039c.581.145 1.163.28 1.739.435.492.131.979.284 1.469.428a.579.579 0 0 1 .121.079l-.013.086c-.121.011-.239.027-.361.032q-1.106.027-2.21.058c-.5.011-1 .018-1.5.04-.976.037-1.949.089-2.923.121-1.326.042-2.652.06-3.975.113-1.439.055-2.875.145-4.31.211-.639.029-1.278.034-1.915.049-1.565.037-3.128.066-4.693.119-1.634.052-3.273.126-4.912.19-.787.029-1.573.05-2.361.078h-.054a1.151 1.151 0 0 1-.714-.245Z" fill="#fff" stroke="rgba(0,0,0,0)" stroke-width="1"></path></svg> 